<?xml version="1.0" encoding="UTF-8" standalone="no"?><svg xmlns="http://www.w3.org/2000/svg" xmlns:xlink="http://www.w3.org/1999/xlink" contentScriptType="application/ecmascript" contentStyleType="text/css" height="1743px" preserveAspectRatio="none" style="width:580px;height:1743px;" version="1.1" viewBox="0 0 580 1743" width="580px" zoomAndPan="magnify"><defs><filter height="300%" id="f1fxzzuw7wejmh" width="300%" x="-1" y="-1"><feGaussianBlur result="blurOut" stdDeviation="2.0"/><feColorMatrix in="blurOut" result="blurOut2" type="matrix" values="0 0 0 0 0 0 0 0 0 0 0 0 0 0 0 0 0 0 .4 0"/><feOffset dx="4.0" dy="4.0" in="blurOut2" result="blurOut3"/><feBlend in="SourceGraphic" in2="blurOut3" mode="normal"/></filter></defs><g><!--cluster objetos--><polygon fill="#FFFFFF" filter="url(#f1fxzzuw7wejmh)" points="22,24,81,24,88,47.6094,360,47.6094,360,1616.5,22,1616.5,22,24" style="stroke: #000000; stroke-width: 1.5;"/><line style="stroke: #000000; stroke-width: 1.5;" x1="22" x2="88" y1="47.6094" y2="47.6094"/><text fill="#000000" font-family="sans-serif" font-size="14" font-weight="bold" lengthAdjust="spacingAndGlyphs" textLength="53" x="26" y="40.5332">objetos</text><!--cluster clases--><polygon fill="#FFFFFF" filter="url(#f1fxzzuw7wejmh)" points="384,119,435,119,442,142.6094,558,142.6094,558,1731,384,1731,384,119" style="stroke: #000000; stroke-width: 1.5;"/><line style="stroke: #000000; stroke-width: 1.5;" x1="384" x2="442" y1="142.6094" y2="142.6094"/><text fill="#000000" font-family="sans-serif" font-size="14" font-weight="bold" lengthAdjust="spacingAndGlyphs" textLength="45" x="388" y="135.5332">clases</text><rect fill="#FEFECE" filter="url(#f1fxzzuw7wejmh)" height="35.0938" style="stroke: #A80036; stroke-width: 1.5;" width="118" x="226" y="1565.5"/><text fill="#000000" font-family="sans-serif" font-size="12" lengthAdjust="spacingAndGlyphs" textLength="104" x="233" y="1579.957">TuParticulaElemtal</text><line style="stroke: #A80036; stroke-width: 1.5;" x1="227" x2="343" y1="1584.5938" y2="1584.5938"/><rect fill="#FEFECE" filter="url(#f1fxzzuw7wejmh)" height="35.0938" style="stroke: #A80036; stroke-width: 1.5;" width="63" x="272.5" y="1457.5"/><text fill="#000000" font-family="sans-serif" font-size="12" lengthAdjust="spacingAndGlyphs" textLength="49" x="279.5" y="1471.957">TuAtomo</text><line style="stroke: #A80036; stroke-width: 1.5;" x1="273.5" x2="334.5" y1="1476.5938" y2="1476.5938"/><rect fill="#FEFECE" filter="url(#f1fxzzuw7wejmh)" height="35.0938" style="stroke: #A80036; stroke-width: 1.5;" width="77" x="265.5" y="1349.5"/><text fill="#000000" font-family="sans-serif" font-size="12" lengthAdjust="spacingAndGlyphs" textLength="63" x="272.5" y="1363.957">TuMolecula</text><line style="stroke: #A80036; stroke-width: 1.5;" x1="266.5" x2="341.5" y1="1368.5938" y2="1368.5938"/><rect fill="#FEFECE" filter="url(#f1fxzzuw7wejmh)" height="35.0938" style="stroke: #A80036; stroke-width: 1.5;" width="79" x="264.5" y="1241.5"/><text fill="#000000" font-family="sans-serif" font-size="12" lengthAdjust="spacingAndGlyphs" textLength="65" x="271.5" y="1255.957">TuOrganulo</text><line style="stroke: #A80036; stroke-width: 1.5;" x1="265.5" x2="342.5" y1="1260.5938" y2="1260.5938"/><rect fill="#FEFECE" filter="url(#f1fxzzuw7wejmh)" height="35.0938" style="stroke: #A80036; stroke-width: 1.5;" width="64" x="275" y="1133.5"/><text fill="#000000" font-family="sans-serif" font-size="12" lengthAdjust="spacingAndGlyphs" textLength="50" x="282" y="1147.957">TuCelula</text><line style="stroke: #A80036; stroke-width: 1.5;" x1="276" x2="338" y1="1152.5938" y2="1152.5938"/><rect fill="#FEFECE" filter="url(#f1fxzzuw7wejmh)" height="35.0938" style="stroke: #A80036; stroke-width: 1.5;" width="74" x="270" y="1025.5"/><text fill="#000000" font-family="sans-serif" font-size="12" lengthAdjust="spacingAndGlyphs" textLength="60" x="277" y="1039.957">TuMusculo</text><line style="stroke: #A80036; stroke-width: 1.5;" x1="271" x2="343" y1="1044.5938" y2="1044.5938"/><rect fill="#FEFECE" filter="url(#f1fxzzuw7wejmh)" height="35.0938" style="stroke: #A80036; stroke-width: 1.5;" width="74" x="270" y="917.5"/><text fill="#000000" font-family="sans-serif" font-size="12" lengthAdjust="spacingAndGlyphs" textLength="60" x="277" y="931.957">TuCorazon</text><line style="stroke: #A80036; stroke-width: 1.5;" x1="271" x2="343" y1="936.5938" y2="936.5938"/><rect fill="#FEFECE" filter="url(#f1fxzzuw7wejmh)" height="35.0938" style="stroke: #A80036; stroke-width: 1.5;" width="137" x="206.5" y="809.5"/><text fill="#000000" font-family="sans-serif" font-size="12" lengthAdjust="spacingAndGlyphs" textLength="123" x="213.5" y="823.957">TuSistemaCirculatorio</text><line style="stroke: #A80036; stroke-width: 1.5;" x1="207.5" x2="342.5" y1="828.5938" y2="828.5938"/><rect fill="#FEFECE" filter="url(#f1fxzzuw7wejmh)" height="35.0938" style="stroke: #A80036; stroke-width: 1.5;" width="28" x="253" y="701.5"/><text fill="#000000" font-family="sans-serif" font-size="12" lengthAdjust="spacingAndGlyphs" textLength="14" x="260" y="715.957">Tu</text><line style="stroke: #A80036; stroke-width: 1.5;" x1="254" x2="280" y1="720.5938" y2="720.5938"/><rect fill="#FEFECE" filter="url(#f1fxzzuw7wejmh)" height="35.0938" style="stroke: #A80036; stroke-width: 1.5;" width="28" x="316" y="701.5"/><text fill="#000000" font-family="sans-serif" font-size="12" lengthAdjust="spacingAndGlyphs" textLength="14" x="323" y="715.957">Yo</text><line style="stroke: #A80036; stroke-width: 1.5;" x1="317" x2="343" y1="720.5938" y2="720.5938"/><rect fill="#FEFECE" filter="url(#f1fxzzuw7wejmh)" height="35.0938" style="stroke: #A80036; stroke-width: 1.5;" width="76" x="268" y="593.5"/><text fill="#000000" font-family="sans-serif" font-size="12" lengthAdjust="spacingAndGlyphs" textLength="62" x="275" y="607.957">LaLitosfera</text><line style="stroke: #A80036; stroke-width: 1.5;" x1="269" x2="343" y1="612.5938" y2="612.5938"/><rect fill="#FEFECE" filter="url(#f1fxzzuw7wejmh)" height="35.0938" style="stroke: #A80036; stroke-width: 1.5;" width="86" x="147" y="593.5"/><text fill="#000000" font-family="sans-serif" font-size="12" lengthAdjust="spacingAndGlyphs" textLength="72" x="154" y="607.957">LaHidrosfera</text><line style="stroke: #A80036; stroke-width: 1.5;" x1="148" x2="232" y1="612.5938" y2="612.5938"/><rect fill="#FEFECE" filter="url(#f1fxzzuw7wejmh)" height="35.0938" style="stroke: #A80036; stroke-width: 1.5;" width="74" x="38" y="593.5"/><text fill="#000000" font-family="sans-serif" font-size="12" lengthAdjust="spacingAndGlyphs" textLength="60" x="45" y="607.957">LaBiosfera</text><line style="stroke: #A80036; stroke-width: 1.5;" x1="39" x2="111" y1="612.5938" y2="612.5938"/><rect fill="#FEFECE" filter="url(#f1fxzzuw7wejmh)" height="35.0938" style="stroke: #A80036; stroke-width: 1.5;" width="60" x="160" y="485.5"/><text fill="#000000" font-family="sans-serif" font-size="12" lengthAdjust="spacingAndGlyphs" textLength="46" x="167" y="499.957">LaTierra</text><line style="stroke: #A80036; stroke-width: 1.5;" x1="161" x2="219" y1="504.5938" y2="504.5938"/><rect fill="#FEFECE" filter="url(#f1fxzzuw7wejmh)" height="35.0938" style="stroke: #A80036; stroke-width: 1.5;" width="51" x="273.5" y="485.5"/><text fill="#000000" font-family="sans-serif" font-size="12" lengthAdjust="spacingAndGlyphs" textLength="37" x="280.5" y="499.957">Jupiter</text><line style="stroke: #A80036; stroke-width: 1.5;" x1="274.5" x2="323.5" y1="504.5938" y2="504.5938"/><rect fill="#FEFECE" filter="url(#f1fxzzuw7wejmh)" height="35.0938" style="stroke: #A80036; stroke-width: 1.5;" width="100" x="137" y="377.5"/><text fill="#000000" font-family="sans-serif" font-size="12" lengthAdjust="spacingAndGlyphs" textLength="86" x="144" y="391.957">ElSistemaSolar</text><line style="stroke: #A80036; stroke-width: 1.5;" x1="138" x2="236" y1="396.5938" y2="396.5938"/><rect fill="#FEFECE" filter="url(#f1fxzzuw7wejmh)" height="35.0938" style="stroke: #A80036; stroke-width: 1.5;" width="71" x="272.5" y="377.5"/><text fill="#000000" font-family="sans-serif" font-size="12" lengthAdjust="spacingAndGlyphs" textLength="57" x="279.5" y="391.957">Kepler444</text><line style="stroke: #A80036; stroke-width: 1.5;" x1="273.5" x2="342.5" y1="396.5938" y2="396.5938"/><rect fill="#FEFECE" filter="url(#f1fxzzuw7wejmh)" height="35.0938" style="stroke: #A80036; stroke-width: 1.5;" width="82" x="147" y="269.5"/><text fill="#000000" font-family="sans-serif" font-size="12" lengthAdjust="spacingAndGlyphs" textLength="68" x="154" y="283.957">LaViaLactea</text><line style="stroke: #A80036; stroke-width: 1.5;" x1="148" x2="228" y1="288.5938" y2="288.5938"/><rect fill="#FEFECE" filter="url(#f1fxzzuw7wejmh)" height="35.0938" style="stroke: #A80036; stroke-width: 1.5;" width="78" x="265" y="269.5"/><text fill="#000000" font-family="sans-serif" font-size="12" lengthAdjust="spacingAndGlyphs" textLength="64" x="272" y="283.957">Andromeda</text><line style="stroke: #A80036; stroke-width: 1.5;" x1="266" x2="342" y1="288.5938" y2="288.5938"/><rect fill="#FEFECE" filter="url(#f1fxzzuw7wejmh)" height="35.0938" style="stroke: #A80036; stroke-width: 1.5;" width="89" x="143.5" y="161.5"/><text fill="#000000" font-family="sans-serif" font-size="12" lengthAdjust="spacingAndGlyphs" textLength="75" x="150.5" y="175.957">ElGrupoLocal</text><line style="stroke: #A80036; stroke-width: 1.5;" x1="144.5" x2="231.5" y1="180.5938" y2="180.5938"/><rect fill="#FEFECE" filter="url(#f1fxzzuw7wejmh)" height="35.0938" style="stroke: #A80036; stroke-width: 1.5;" width="76" x="268" y="161.5"/><text fill="#000000" font-family="sans-serif" font-size="12" lengthAdjust="spacingAndGlyphs" textLength="62" x="275" y="175.957">GrupoVirgo</text><line style="stroke: #A80036; stroke-width: 1.5;" x1="269" x2="343" y1="180.5938" y2="180.5938"/><rect fill="#FEFECE" filter="url(#f1fxzzuw7wejmh)" height="35.0938" style="stroke: #A80036; stroke-width: 1.5;" width="74" x="269" y="60"/><text fill="#000000" font-family="sans-serif" font-size="12" lengthAdjust="spacingAndGlyphs" textLength="60" x="276" y="74.457">ElUniverso</text><line style="stroke: #A80036; stroke-width: 1.5;" x1="270" x2="342" y1="79.0938" y2="79.0938"/><!--class ParticulaElemental--><rect fill="#FEFECE" filter="url(#f1fxzzuw7wejmh)" height="48" id="ParticulaElemental" style="stroke: #A80036; stroke-width: 1.5;" width="136" x="400" y="1667"/><ellipse cx="415" cy="1683" fill="#ADD1B2" rx="11" ry="11" style="stroke: #A80036; stroke-width: 1.0;"/><path d="M417.7656,1678.875 Q417.9219,1678.6563 418.1094,1678.5469 Q418.2969,1678.4375 418.5156,1678.4375 Q418.8906,1678.4375 419.125,1678.6953 Q419.3594,1678.9531 419.3594,1679.5625 L419.3594,1681.0156 Q419.3594,1681.625 419.125,1681.8906 Q418.8906,1682.1563 418.5156,1682.1563 Q418.1719,1682.1563 417.9688,1681.9531 Q417.7656,1681.7656 417.6563,1681.25 Q417.6094,1680.8906 417.4219,1680.7031 Q417.0938,1680.3281 416.4844,1680.1094 Q415.875,1679.8906 415.25,1679.8906 Q414.4844,1679.8906 413.8516,1680.2188 Q413.2188,1680.5469 412.7266,1681.2969 Q412.2344,1682.0469 412.2344,1683.0781 L412.2344,1684.1719 Q412.2344,1685.4063 413.125,1686.2266 Q414.0156,1687.0469 415.6094,1687.0469 Q416.5469,1687.0469 417.2031,1686.7969 Q417.5938,1686.6406 418.0156,1686.2031 Q418.2813,1685.9375 418.4297,1685.8594 Q418.5781,1685.7813 418.7813,1685.7813 Q419.1094,1685.7813 419.3672,1686.0391 Q419.625,1686.2969 419.625,1686.6406 Q419.625,1686.9844 419.2813,1687.3906 Q418.7813,1687.9688 417.9844,1688.2969 Q416.9063,1688.75 415.6094,1688.75 Q414.0938,1688.75 412.8906,1688.125 Q411.9063,1687.625 411.2188,1686.5547 Q410.5313,1685.4844 410.5313,1684.2031 L410.5313,1683.0469 Q410.5313,1681.7188 411.1484,1680.5703 Q411.7656,1679.4219 412.8594,1678.8047 Q413.9531,1678.1875 415.1875,1678.1875 Q415.9219,1678.1875 416.5703,1678.3516 Q417.2188,1678.5156 417.7656,1678.875 Z "/><text fill="#000000" font-family="sans-serif" font-size="12" lengthAdjust="spacingAndGlyphs" textLength="104" x="429" y="1687.9102">ParticulaElemental</text><line style="stroke: #A80036; stroke-width: 1.5;" x1="401" x2="535" y1="1699" y2="1699"/><line style="stroke: #A80036; stroke-width: 1.5;" x1="401" x2="535" y1="1707" y2="1707"/><!--class Átomo--><rect fill="#FEFECE" filter="url(#f1fxzzuw7wejmh)" height="48" id="Átomo" style="stroke: #A80036; stroke-width: 1.5;" width="67" x="407.5" y="1559"/><ellipse cx="422.5" cy="1575" fill="#ADD1B2" rx="11" ry="11" style="stroke: #A80036; stroke-width: 1.0;"/><path d="M425.2656,1570.875 Q425.4219,1570.6563 425.6094,1570.5469 Q425.7969,1570.4375 426.0156,1570.4375 Q426.3906,1570.4375 426.625,1570.6953 Q426.8594,1570.9531 426.8594,1571.5625 L426.8594,1573.0156 Q426.8594,1573.625 426.625,1573.8906 Q426.3906,1574.1563 426.0156,1574.1563 Q425.6719,1574.1563 425.4688,1573.9531 Q425.2656,1573.7656 425.1563,1573.25 Q425.1094,1572.8906 424.9219,1572.7031 Q424.5938,1572.3281 423.9844,1572.1094 Q423.375,1571.8906 422.75,1571.8906 Q421.9844,1571.8906 421.3516,1572.2188 Q420.7188,1572.5469 420.2266,1573.2969 Q419.7344,1574.0469 419.7344,1575.0781 L419.7344,1576.1719 Q419.7344,1577.4063 420.625,1578.2266 Q421.5156,1579.0469 423.1094,1579.0469 Q424.0469,1579.0469 424.7031,1578.7969 Q425.0938,1578.6406 425.5156,1578.2031 Q425.7813,1577.9375 425.9297,1577.8594 Q426.0781,1577.7813 426.2813,1577.7813 Q426.6094,1577.7813 426.8672,1578.0391 Q427.125,1578.2969 427.125,1578.6406 Q427.125,1578.9844 426.7813,1579.3906 Q426.2813,1579.9688 425.4844,1580.2969 Q424.4063,1580.75 423.1094,1580.75 Q421.5938,1580.75 420.3906,1580.125 Q419.4063,1579.625 418.7188,1578.5547 Q418.0313,1577.4844 418.0313,1576.2031 L418.0313,1575.0469 Q418.0313,1573.7188 418.6484,1572.5703 Q419.2656,1571.4219 420.3594,1570.8047 Q421.4531,1570.1875 422.6875,1570.1875 Q423.4219,1570.1875 424.0703,1570.3516 Q424.7188,1570.5156 425.2656,1570.875 Z "/><text fill="#000000" font-family="sans-serif" font-size="12" lengthAdjust="spacingAndGlyphs" textLength="35" x="436.5" y="1579.9102">Átomo</text><line style="stroke: #A80036; stroke-width: 1.5;" x1="408.5" x2="473.5" y1="1591" y2="1591"/><line style="stroke: #A80036; stroke-width: 1.5;" x1="408.5" x2="473.5" y1="1599" y2="1599"/><!--class Molécula--><rect fill="#FEFECE" filter="url(#f1fxzzuw7wejmh)" height="48" id="Molécula" style="stroke: #A80036; stroke-width: 1.5;" width="81" x="400.5" y="1451"/><ellipse cx="415.5" cy="1467" fill="#ADD1B2" rx="11" ry="11" style="stroke: #A80036; stroke-width: 1.0;"/><path d="M418.2656,1462.875 Q418.4219,1462.6563 418.6094,1462.5469 Q418.7969,1462.4375 419.0156,1462.4375 Q419.3906,1462.4375 419.625,1462.6953 Q419.8594,1462.9531 419.8594,1463.5625 L419.8594,1465.0156 Q419.8594,1465.625 419.625,1465.8906 Q419.3906,1466.1563 419.0156,1466.1563 Q418.6719,1466.1563 418.4688,1465.9531 Q418.2656,1465.7656 418.1563,1465.25 Q418.1094,1464.8906 417.9219,1464.7031 Q417.5938,1464.3281 416.9844,1464.1094 Q416.375,1463.8906 415.75,1463.8906 Q414.9844,1463.8906 414.3516,1464.2188 Q413.7188,1464.5469 413.2266,1465.2969 Q412.7344,1466.0469 412.7344,1467.0781 L412.7344,1468.1719 Q412.7344,1469.4063 413.625,1470.2266 Q414.5156,1471.0469 416.1094,1471.0469 Q417.0469,1471.0469 417.7031,1470.7969 Q418.0938,1470.6406 418.5156,1470.2031 Q418.7813,1469.9375 418.9297,1469.8594 Q419.0781,1469.7813 419.2813,1469.7813 Q419.6094,1469.7813 419.8672,1470.0391 Q420.125,1470.2969 420.125,1470.6406 Q420.125,1470.9844 419.7813,1471.3906 Q419.2813,1471.9688 418.4844,1472.2969 Q417.4063,1472.75 416.1094,1472.75 Q414.5938,1472.75 413.3906,1472.125 Q412.4063,1471.625 411.7188,1470.5547 Q411.0313,1469.4844 411.0313,1468.2031 L411.0313,1467.0469 Q411.0313,1465.7188 411.6484,1464.5703 Q412.2656,1463.4219 413.3594,1462.8047 Q414.4531,1462.1875 415.6875,1462.1875 Q416.4219,1462.1875 417.0703,1462.3516 Q417.7188,1462.5156 418.2656,1462.875 Z "/><text fill="#000000" font-family="sans-serif" font-size="12" lengthAdjust="spacingAndGlyphs" textLength="49" x="429.5" y="1471.9102">Molécula</text><line style="stroke: #A80036; stroke-width: 1.5;" x1="401.5" x2="480.5" y1="1483" y2="1483"/><line style="stroke: #A80036; stroke-width: 1.5;" x1="401.5" x2="480.5" y1="1491" y2="1491"/><!--class Orgánulo--><rect fill="#FEFECE" filter="url(#f1fxzzuw7wejmh)" height="48" id="Orgánulo" style="stroke: #A80036; stroke-width: 1.5;" width="83" x="400.5" y="1343"/><ellipse cx="415.5" cy="1359" fill="#ADD1B2" rx="11" ry="11" style="stroke: #A80036; stroke-width: 1.0;"/><path d="M418.2656,1354.875 Q418.4219,1354.6563 418.6094,1354.5469 Q418.7969,1354.4375 419.0156,1354.4375 Q419.3906,1354.4375 419.625,1354.6953 Q419.8594,1354.9531 419.8594,1355.5625 L419.8594,1357.0156 Q419.8594,1357.625 419.625,1357.8906 Q419.3906,1358.1563 419.0156,1358.1563 Q418.6719,1358.1563 418.4688,1357.9531 Q418.2656,1357.7656 418.1563,1357.25 Q418.1094,1356.8906 417.9219,1356.7031 Q417.5938,1356.3281 416.9844,1356.1094 Q416.375,1355.8906 415.75,1355.8906 Q414.9844,1355.8906 414.3516,1356.2188 Q413.7188,1356.5469 413.2266,1357.2969 Q412.7344,1358.0469 412.7344,1359.0781 L412.7344,1360.1719 Q412.7344,1361.4063 413.625,1362.2266 Q414.5156,1363.0469 416.1094,1363.0469 Q417.0469,1363.0469 417.7031,1362.7969 Q418.0938,1362.6406 418.5156,1362.2031 Q418.7813,1361.9375 418.9297,1361.8594 Q419.0781,1361.7813 419.2813,1361.7813 Q419.6094,1361.7813 419.8672,1362.0391 Q420.125,1362.2969 420.125,1362.6406 Q420.125,1362.9844 419.7813,1363.3906 Q419.2813,1363.9688 418.4844,1364.2969 Q417.4063,1364.75 416.1094,1364.75 Q414.5938,1364.75 413.3906,1364.125 Q412.4063,1363.625 411.7188,1362.5547 Q411.0313,1361.4844 411.0313,1360.2031 L411.0313,1359.0469 Q411.0313,1357.7188 411.6484,1356.5703 Q412.2656,1355.4219 413.3594,1354.8047 Q414.4531,1354.1875 415.6875,1354.1875 Q416.4219,1354.1875 417.0703,1354.3516 Q417.7188,1354.5156 418.2656,1354.875 Z "/><text fill="#000000" font-family="sans-serif" font-size="12" lengthAdjust="spacingAndGlyphs" textLength="51" x="429.5" y="1363.9102">Orgánulo</text><line style="stroke: #A80036; stroke-width: 1.5;" x1="401.5" x2="482.5" y1="1375" y2="1375"/><line style="stroke: #A80036; stroke-width: 1.5;" x1="401.5" x2="482.5" y1="1383" y2="1383"/><!--class Célula--><rect fill="#FEFECE" filter="url(#f1fxzzuw7wejmh)" height="48" id="Célula" style="stroke: #A80036; stroke-width: 1.5;" width="68" x="405" y="1235"/><ellipse cx="420" cy="1251" fill="#ADD1B2" rx="11" ry="11" style="stroke: #A80036; stroke-width: 1.0;"/><path d="M422.7656,1246.875 Q422.9219,1246.6563 423.1094,1246.5469 Q423.2969,1246.4375 423.5156,1246.4375 Q423.8906,1246.4375 424.125,1246.6953 Q424.3594,1246.9531 424.3594,1247.5625 L424.3594,1249.0156 Q424.3594,1249.625 424.125,1249.8906 Q423.8906,1250.1563 423.5156,1250.1563 Q423.1719,1250.1563 422.9688,1249.9531 Q422.7656,1249.7656 422.6563,1249.25 Q422.6094,1248.8906 422.4219,1248.7031 Q422.0938,1248.3281 421.4844,1248.1094 Q420.875,1247.8906 420.25,1247.8906 Q419.4844,1247.8906 418.8516,1248.2188 Q418.2188,1248.5469 417.7266,1249.2969 Q417.2344,1250.0469 417.2344,1251.0781 L417.2344,1252.1719 Q417.2344,1253.4063 418.125,1254.2266 Q419.0156,1255.0469 420.6094,1255.0469 Q421.5469,1255.0469 422.2031,1254.7969 Q422.5938,1254.6406 423.0156,1254.2031 Q423.2813,1253.9375 423.4297,1253.8594 Q423.5781,1253.7813 423.7813,1253.7813 Q424.1094,1253.7813 424.3672,1254.0391 Q424.625,1254.2969 424.625,1254.6406 Q424.625,1254.9844 424.2813,1255.3906 Q423.7813,1255.9688 422.9844,1256.2969 Q421.9063,1256.75 420.6094,1256.75 Q419.0938,1256.75 417.8906,1256.125 Q416.9063,1255.625 416.2188,1254.5547 Q415.5313,1253.4844 415.5313,1252.2031 L415.5313,1251.0469 Q415.5313,1249.7188 416.1484,1248.5703 Q416.7656,1247.4219 417.8594,1246.8047 Q418.9531,1246.1875 420.1875,1246.1875 Q420.9219,1246.1875 421.5703,1246.3516 Q422.2188,1246.5156 422.7656,1246.875 Z "/><text fill="#000000" font-family="sans-serif" font-size="12" lengthAdjust="spacingAndGlyphs" textLength="36" x="434" y="1255.9102">Célula</text><line style="stroke: #A80036; stroke-width: 1.5;" x1="406" x2="472" y1="1267" y2="1267"/><line style="stroke: #A80036; stroke-width: 1.5;" x1="406" x2="472" y1="1275" y2="1275"/><!--class Músculo--><rect fill="#FEFECE" filter="url(#f1fxzzuw7wejmh)" height="48" id="Músculo" style="stroke: #A80036; stroke-width: 1.5;" width="78" x="400" y="1127"/><ellipse cx="415" cy="1143" fill="#ADD1B2" rx="11" ry="11" style="stroke: #A80036; stroke-width: 1.0;"/><path d="M417.7656,1138.875 Q417.9219,1138.6563 418.1094,1138.5469 Q418.2969,1138.4375 418.5156,1138.4375 Q418.8906,1138.4375 419.125,1138.6953 Q419.3594,1138.9531 419.3594,1139.5625 L419.3594,1141.0156 Q419.3594,1141.625 419.125,1141.8906 Q418.8906,1142.1563 418.5156,1142.1563 Q418.1719,1142.1563 417.9688,1141.9531 Q417.7656,1141.7656 417.6563,1141.25 Q417.6094,1140.8906 417.4219,1140.7031 Q417.0938,1140.3281 416.4844,1140.1094 Q415.875,1139.8906 415.25,1139.8906 Q414.4844,1139.8906 413.8516,1140.2188 Q413.2188,1140.5469 412.7266,1141.2969 Q412.2344,1142.0469 412.2344,1143.0781 L412.2344,1144.1719 Q412.2344,1145.4063 413.125,1146.2266 Q414.0156,1147.0469 415.6094,1147.0469 Q416.5469,1147.0469 417.2031,1146.7969 Q417.5938,1146.6406 418.0156,1146.2031 Q418.2813,1145.9375 418.4297,1145.8594 Q418.5781,1145.7813 418.7813,1145.7813 Q419.1094,1145.7813 419.3672,1146.0391 Q419.625,1146.2969 419.625,1146.6406 Q419.625,1146.9844 419.2813,1147.3906 Q418.7813,1147.9688 417.9844,1148.2969 Q416.9063,1148.75 415.6094,1148.75 Q414.0938,1148.75 412.8906,1148.125 Q411.9063,1147.625 411.2188,1146.5547 Q410.5313,1145.4844 410.5313,1144.2031 L410.5313,1143.0469 Q410.5313,1141.7188 411.1484,1140.5703 Q411.7656,1139.4219 412.8594,1138.8047 Q413.9531,1138.1875 415.1875,1138.1875 Q415.9219,1138.1875 416.5703,1138.3516 Q417.2188,1138.5156 417.7656,1138.875 Z "/><text fill="#000000" font-family="sans-serif" font-size="12" lengthAdjust="spacingAndGlyphs" textLength="46" x="429" y="1147.9102">Músculo</text><line style="stroke: #A80036; stroke-width: 1.5;" x1="401" x2="477" y1="1159" y2="1159"/><line style="stroke: #A80036; stroke-width: 1.5;" x1="401" x2="477" y1="1167" y2="1167"/><!--class Corazón--><rect fill="#FEFECE" filter="url(#f1fxzzuw7wejmh)" height="48" id="Corazón" style="stroke: #A80036; stroke-width: 1.5;" width="78" x="400" y="1019"/><ellipse cx="415" cy="1035" fill="#ADD1B2" rx="11" ry="11" style="stroke: #A80036; stroke-width: 1.0;"/><path d="M417.7656,1030.875 Q417.9219,1030.6563 418.1094,1030.5469 Q418.2969,1030.4375 418.5156,1030.4375 Q418.8906,1030.4375 419.125,1030.6953 Q419.3594,1030.9531 419.3594,1031.5625 L419.3594,1033.0156 Q419.3594,1033.625 419.125,1033.8906 Q418.8906,1034.1563 418.5156,1034.1563 Q418.1719,1034.1563 417.9688,1033.9531 Q417.7656,1033.7656 417.6563,1033.25 Q417.6094,1032.8906 417.4219,1032.7031 Q417.0938,1032.3281 416.4844,1032.1094 Q415.875,1031.8906 415.25,1031.8906 Q414.4844,1031.8906 413.8516,1032.2188 Q413.2188,1032.5469 412.7266,1033.2969 Q412.2344,1034.0469 412.2344,1035.0781 L412.2344,1036.1719 Q412.2344,1037.4063 413.125,1038.2266 Q414.0156,1039.0469 415.6094,1039.0469 Q416.5469,1039.0469 417.2031,1038.7969 Q417.5938,1038.6406 418.0156,1038.2031 Q418.2813,1037.9375 418.4297,1037.8594 Q418.5781,1037.7813 418.7813,1037.7813 Q419.1094,1037.7813 419.3672,1038.0391 Q419.625,1038.2969 419.625,1038.6406 Q419.625,1038.9844 419.2813,1039.3906 Q418.7813,1039.9688 417.9844,1040.2969 Q416.9063,1040.75 415.6094,1040.75 Q414.0938,1040.75 412.8906,1040.125 Q411.9063,1039.625 411.2188,1038.5547 Q410.5313,1037.4844 410.5313,1036.2031 L410.5313,1035.0469 Q410.5313,1033.7188 411.1484,1032.5703 Q411.7656,1031.4219 412.8594,1030.8047 Q413.9531,1030.1875 415.1875,1030.1875 Q415.9219,1030.1875 416.5703,1030.3516 Q417.2188,1030.5156 417.7656,1030.875 Z "/><text fill="#000000" font-family="sans-serif" font-size="12" lengthAdjust="spacingAndGlyphs" textLength="46" x="429" y="1039.9102">Corazón</text><line style="stroke: #A80036; stroke-width: 1.5;" x1="401" x2="477" y1="1051" y2="1051"/><line style="stroke: #A80036; stroke-width: 1.5;" x1="401" x2="477" y1="1059" y2="1059"/><!--class SistemaCirculatorio--><rect fill="#FEFECE" filter="url(#f1fxzzuw7wejmh)" height="48" id="SistemaCirculatorio" style="stroke: #A80036; stroke-width: 1.5;" width="141" x="400.5" y="911"/><ellipse cx="415.5" cy="927" fill="#ADD1B2" rx="11" ry="11" style="stroke: #A80036; stroke-width: 1.0;"/><path d="M418.2656,922.875 Q418.4219,922.6563 418.6094,922.5469 Q418.7969,922.4375 419.0156,922.4375 Q419.3906,922.4375 419.625,922.6953 Q419.8594,922.9531 419.8594,923.5625 L419.8594,925.0156 Q419.8594,925.625 419.625,925.8906 Q419.3906,926.1563 419.0156,926.1563 Q418.6719,926.1563 418.4688,925.9531 Q418.2656,925.7656 418.1563,925.25 Q418.1094,924.8906 417.9219,924.7031 Q417.5938,924.3281 416.9844,924.1094 Q416.375,923.8906 415.75,923.8906 Q414.9844,923.8906 414.3516,924.2188 Q413.7188,924.5469 413.2266,925.2969 Q412.7344,926.0469 412.7344,927.0781 L412.7344,928.1719 Q412.7344,929.4063 413.625,930.2266 Q414.5156,931.0469 416.1094,931.0469 Q417.0469,931.0469 417.7031,930.7969 Q418.0938,930.6406 418.5156,930.2031 Q418.7813,929.9375 418.9297,929.8594 Q419.0781,929.7813 419.2813,929.7813 Q419.6094,929.7813 419.8672,930.0391 Q420.125,930.2969 420.125,930.6406 Q420.125,930.9844 419.7813,931.3906 Q419.2813,931.9688 418.4844,932.2969 Q417.4063,932.75 416.1094,932.75 Q414.5938,932.75 413.3906,932.125 Q412.4063,931.625 411.7188,930.5547 Q411.0313,929.4844 411.0313,928.2031 L411.0313,927.0469 Q411.0313,925.7188 411.6484,924.5703 Q412.2656,923.4219 413.3594,922.8047 Q414.4531,922.1875 415.6875,922.1875 Q416.4219,922.1875 417.0703,922.3516 Q417.7188,922.5156 418.2656,922.875 Z "/><text fill="#000000" font-family="sans-serif" font-size="12" lengthAdjust="spacingAndGlyphs" textLength="109" x="429.5" y="931.9102">SistemaCirculatorio</text><line style="stroke: #A80036; stroke-width: 1.5;" x1="401.5" x2="540.5" y1="943" y2="943"/><line style="stroke: #A80036; stroke-width: 1.5;" x1="401.5" x2="540.5" y1="951" y2="951"/><!--class HomoSapiens--><rect fill="#FEFECE" filter="url(#f1fxzzuw7wejmh)" height="48" id="HomoSapiens" style="stroke: #A80036; stroke-width: 1.5;" width="112" x="400" y="803"/><ellipse cx="415" cy="819" fill="#ADD1B2" rx="11" ry="11" style="stroke: #A80036; stroke-width: 1.0;"/><path d="M417.7656,814.875 Q417.9219,814.6563 418.1094,814.5469 Q418.2969,814.4375 418.5156,814.4375 Q418.8906,814.4375 419.125,814.6953 Q419.3594,814.9531 419.3594,815.5625 L419.3594,817.0156 Q419.3594,817.625 419.125,817.8906 Q418.8906,818.1563 418.5156,818.1563 Q418.1719,818.1563 417.9688,817.9531 Q417.7656,817.7656 417.6563,817.25 Q417.6094,816.8906 417.4219,816.7031 Q417.0938,816.3281 416.4844,816.1094 Q415.875,815.8906 415.25,815.8906 Q414.4844,815.8906 413.8516,816.2188 Q413.2188,816.5469 412.7266,817.2969 Q412.2344,818.0469 412.2344,819.0781 L412.2344,820.1719 Q412.2344,821.4063 413.125,822.2266 Q414.0156,823.0469 415.6094,823.0469 Q416.5469,823.0469 417.2031,822.7969 Q417.5938,822.6406 418.0156,822.2031 Q418.2813,821.9375 418.4297,821.8594 Q418.5781,821.7813 418.7813,821.7813 Q419.1094,821.7813 419.3672,822.0391 Q419.625,822.2969 419.625,822.6406 Q419.625,822.9844 419.2813,823.3906 Q418.7813,823.9688 417.9844,824.2969 Q416.9063,824.75 415.6094,824.75 Q414.0938,824.75 412.8906,824.125 Q411.9063,823.625 411.2188,822.5547 Q410.5313,821.4844 410.5313,820.2031 L410.5313,819.0469 Q410.5313,817.7188 411.1484,816.5703 Q411.7656,815.4219 412.8594,814.8047 Q413.9531,814.1875 415.1875,814.1875 Q415.9219,814.1875 416.5703,814.3516 Q417.2188,814.5156 417.7656,814.875 Z "/><text fill="#000000" font-family="sans-serif" font-size="12" lengthAdjust="spacingAndGlyphs" textLength="80" x="429" y="823.9102">HomoSapiens</text><line style="stroke: #A80036; stroke-width: 1.5;" x1="401" x2="511" y1="835" y2="835"/><line style="stroke: #A80036; stroke-width: 1.5;" x1="401" x2="511" y1="843" y2="843"/><!--class Esfera--><rect fill="#FEFECE" filter="url(#f1fxzzuw7wejmh)" height="48" id="Esfera" style="stroke: #A80036; stroke-width: 1.5;" width="68" x="400" y="695"/><ellipse cx="415" cy="711" fill="#ADD1B2" rx="11" ry="11" style="stroke: #A80036; stroke-width: 1.0;"/><path d="M417.7656,706.875 Q417.9219,706.6563 418.1094,706.5469 Q418.2969,706.4375 418.5156,706.4375 Q418.8906,706.4375 419.125,706.6953 Q419.3594,706.9531 419.3594,707.5625 L419.3594,709.0156 Q419.3594,709.625 419.125,709.8906 Q418.8906,710.1563 418.5156,710.1563 Q418.1719,710.1563 417.9688,709.9531 Q417.7656,709.7656 417.6563,709.25 Q417.6094,708.8906 417.4219,708.7031 Q417.0938,708.3281 416.4844,708.1094 Q415.875,707.8906 415.25,707.8906 Q414.4844,707.8906 413.8516,708.2188 Q413.2188,708.5469 412.7266,709.2969 Q412.2344,710.0469 412.2344,711.0781 L412.2344,712.1719 Q412.2344,713.4063 413.125,714.2266 Q414.0156,715.0469 415.6094,715.0469 Q416.5469,715.0469 417.2031,714.7969 Q417.5938,714.6406 418.0156,714.2031 Q418.2813,713.9375 418.4297,713.8594 Q418.5781,713.7813 418.7813,713.7813 Q419.1094,713.7813 419.3672,714.0391 Q419.625,714.2969 419.625,714.6406 Q419.625,714.9844 419.2813,715.3906 Q418.7813,715.9688 417.9844,716.2969 Q416.9063,716.75 415.6094,716.75 Q414.0938,716.75 412.8906,716.125 Q411.9063,715.625 411.2188,714.5547 Q410.5313,713.4844 410.5313,712.2031 L410.5313,711.0469 Q410.5313,709.7188 411.1484,708.5703 Q411.7656,707.4219 412.8594,706.8047 Q413.9531,706.1875 415.1875,706.1875 Q415.9219,706.1875 416.5703,706.3516 Q417.2188,706.5156 417.7656,706.875 Z "/><text fill="#000000" font-family="sans-serif" font-size="12" lengthAdjust="spacingAndGlyphs" textLength="36" x="429" y="715.9102">Esfera</text><line style="stroke: #A80036; stroke-width: 1.5;" x1="401" x2="467" y1="727" y2="727"/><line style="stroke: #A80036; stroke-width: 1.5;" x1="401" x2="467" y1="735" y2="735"/><!--class Planeta--><rect fill="#FEFECE" filter="url(#f1fxzzuw7wejmh)" height="48" id="Planeta" style="stroke: #A80036; stroke-width: 1.5;" width="74" x="400" y="587"/><ellipse cx="415" cy="603" fill="#ADD1B2" rx="11" ry="11" style="stroke: #A80036; stroke-width: 1.0;"/><path d="M417.7656,598.875 Q417.9219,598.6563 418.1094,598.5469 Q418.2969,598.4375 418.5156,598.4375 Q418.8906,598.4375 419.125,598.6953 Q419.3594,598.9531 419.3594,599.5625 L419.3594,601.0156 Q419.3594,601.625 419.125,601.8906 Q418.8906,602.1563 418.5156,602.1563 Q418.1719,602.1563 417.9688,601.9531 Q417.7656,601.7656 417.6563,601.25 Q417.6094,600.8906 417.4219,600.7031 Q417.0938,600.3281 416.4844,600.1094 Q415.875,599.8906 415.25,599.8906 Q414.4844,599.8906 413.8516,600.2188 Q413.2188,600.5469 412.7266,601.2969 Q412.2344,602.0469 412.2344,603.0781 L412.2344,604.1719 Q412.2344,605.4063 413.125,606.2266 Q414.0156,607.0469 415.6094,607.0469 Q416.5469,607.0469 417.2031,606.7969 Q417.5938,606.6406 418.0156,606.2031 Q418.2813,605.9375 418.4297,605.8594 Q418.5781,605.7813 418.7813,605.7813 Q419.1094,605.7813 419.3672,606.0391 Q419.625,606.2969 419.625,606.6406 Q419.625,606.9844 419.2813,607.3906 Q418.7813,607.9688 417.9844,608.2969 Q416.9063,608.75 415.6094,608.75 Q414.0938,608.75 412.8906,608.125 Q411.9063,607.625 411.2188,606.5547 Q410.5313,605.4844 410.5313,604.2031 L410.5313,603.0469 Q410.5313,601.7188 411.1484,600.5703 Q411.7656,599.4219 412.8594,598.8047 Q413.9531,598.1875 415.1875,598.1875 Q415.9219,598.1875 416.5703,598.3516 Q417.2188,598.5156 417.7656,598.875 Z "/><text fill="#000000" font-family="sans-serif" font-size="12" lengthAdjust="spacingAndGlyphs" textLength="42" x="429" y="607.9102">Planeta</text><line style="stroke: #A80036; stroke-width: 1.5;" x1="401" x2="473" y1="619" y2="619"/><line style="stroke: #A80036; stroke-width: 1.5;" x1="401" x2="473" y1="627" y2="627"/><!--class SistemaSolar--><rect fill="#FEFECE" filter="url(#f1fxzzuw7wejmh)" height="48" id="SistemaSolar" style="stroke: #A80036; stroke-width: 1.5;" width="107" x="400.5" y="479"/><ellipse cx="415.5" cy="495" fill="#ADD1B2" rx="11" ry="11" style="stroke: #A80036; stroke-width: 1.0;"/><path d="M418.2656,490.875 Q418.4219,490.6563 418.6094,490.5469 Q418.7969,490.4375 419.0156,490.4375 Q419.3906,490.4375 419.625,490.6953 Q419.8594,490.9531 419.8594,491.5625 L419.8594,493.0156 Q419.8594,493.625 419.625,493.8906 Q419.3906,494.1563 419.0156,494.1563 Q418.6719,494.1563 418.4688,493.9531 Q418.2656,493.7656 418.1563,493.25 Q418.1094,492.8906 417.9219,492.7031 Q417.5938,492.3281 416.9844,492.1094 Q416.375,491.8906 415.75,491.8906 Q414.9844,491.8906 414.3516,492.2188 Q413.7188,492.5469 413.2266,493.2969 Q412.7344,494.0469 412.7344,495.0781 L412.7344,496.1719 Q412.7344,497.4063 413.625,498.2266 Q414.5156,499.0469 416.1094,499.0469 Q417.0469,499.0469 417.7031,498.7969 Q418.0938,498.6406 418.5156,498.2031 Q418.7813,497.9375 418.9297,497.8594 Q419.0781,497.7813 419.2813,497.7813 Q419.6094,497.7813 419.8672,498.0391 Q420.125,498.2969 420.125,498.6406 Q420.125,498.9844 419.7813,499.3906 Q419.2813,499.9688 418.4844,500.2969 Q417.4063,500.75 416.1094,500.75 Q414.5938,500.75 413.3906,500.125 Q412.4063,499.625 411.7188,498.5547 Q411.0313,497.4844 411.0313,496.2031 L411.0313,495.0469 Q411.0313,493.7188 411.6484,492.5703 Q412.2656,491.4219 413.3594,490.8047 Q414.4531,490.1875 415.6875,490.1875 Q416.4219,490.1875 417.0703,490.3516 Q417.7188,490.5156 418.2656,490.875 Z "/><text fill="#000000" font-family="sans-serif" font-size="12" lengthAdjust="spacingAndGlyphs" textLength="75" x="429.5" y="499.9102">SistemaSolar</text><line style="stroke: #A80036; stroke-width: 1.5;" x1="401.5" x2="506.5" y1="511" y2="511"/><line style="stroke: #A80036; stroke-width: 1.5;" x1="401.5" x2="506.5" y1="519" y2="519"/><!--class Galaxia--><rect fill="#FEFECE" filter="url(#f1fxzzuw7wejmh)" height="48" id="Galaxia" style="stroke: #A80036; stroke-width: 1.5;" width="73" x="400.5" y="371"/><ellipse cx="415.5" cy="387" fill="#ADD1B2" rx="11" ry="11" style="stroke: #A80036; stroke-width: 1.0;"/><path d="M418.2656,382.875 Q418.4219,382.6563 418.6094,382.5469 Q418.7969,382.4375 419.0156,382.4375 Q419.3906,382.4375 419.625,382.6953 Q419.8594,382.9531 419.8594,383.5625 L419.8594,385.0156 Q419.8594,385.625 419.625,385.8906 Q419.3906,386.1563 419.0156,386.1563 Q418.6719,386.1563 418.4688,385.9531 Q418.2656,385.7656 418.1563,385.25 Q418.1094,384.8906 417.9219,384.7031 Q417.5938,384.3281 416.9844,384.1094 Q416.375,383.8906 415.75,383.8906 Q414.9844,383.8906 414.3516,384.2188 Q413.7188,384.5469 413.2266,385.2969 Q412.7344,386.0469 412.7344,387.0781 L412.7344,388.1719 Q412.7344,389.4063 413.625,390.2266 Q414.5156,391.0469 416.1094,391.0469 Q417.0469,391.0469 417.7031,390.7969 Q418.0938,390.6406 418.5156,390.2031 Q418.7813,389.9375 418.9297,389.8594 Q419.0781,389.7813 419.2813,389.7813 Q419.6094,389.7813 419.8672,390.0391 Q420.125,390.2969 420.125,390.6406 Q420.125,390.9844 419.7813,391.3906 Q419.2813,391.9688 418.4844,392.2969 Q417.4063,392.75 416.1094,392.75 Q414.5938,392.75 413.3906,392.125 Q412.4063,391.625 411.7188,390.5547 Q411.0313,389.4844 411.0313,388.2031 L411.0313,387.0469 Q411.0313,385.7188 411.6484,384.5703 Q412.2656,383.4219 413.3594,382.8047 Q414.4531,382.1875 415.6875,382.1875 Q416.4219,382.1875 417.0703,382.3516 Q417.7188,382.5156 418.2656,382.875 Z "/><text fill="#000000" font-family="sans-serif" font-size="12" lengthAdjust="spacingAndGlyphs" textLength="41" x="429.5" y="391.9102">Galaxia</text><line style="stroke: #A80036; stroke-width: 1.5;" x1="401.5" x2="472.5" y1="403" y2="403"/><line style="stroke: #A80036; stroke-width: 1.5;" x1="401.5" x2="472.5" y1="411" y2="411"/><!--class Grupo--><rect fill="#FEFECE" filter="url(#f1fxzzuw7wejmh)" height="48" id="Grupo" style="stroke: #A80036; stroke-width: 1.5;" width="66" x="402" y="263"/><ellipse cx="417" cy="279" fill="#ADD1B2" rx="11" ry="11" style="stroke: #A80036; stroke-width: 1.0;"/><path d="M419.7656,274.875 Q419.9219,274.6563 420.1094,274.5469 Q420.2969,274.4375 420.5156,274.4375 Q420.8906,274.4375 421.125,274.6953 Q421.3594,274.9531 421.3594,275.5625 L421.3594,277.0156 Q421.3594,277.625 421.125,277.8906 Q420.8906,278.1563 420.5156,278.1563 Q420.1719,278.1563 419.9688,277.9531 Q419.7656,277.7656 419.6563,277.25 Q419.6094,276.8906 419.4219,276.7031 Q419.0938,276.3281 418.4844,276.1094 Q417.875,275.8906 417.25,275.8906 Q416.4844,275.8906 415.8516,276.2188 Q415.2188,276.5469 414.7266,277.2969 Q414.2344,278.0469 414.2344,279.0781 L414.2344,280.1719 Q414.2344,281.4063 415.125,282.2266 Q416.0156,283.0469 417.6094,283.0469 Q418.5469,283.0469 419.2031,282.7969 Q419.5938,282.6406 420.0156,282.2031 Q420.2813,281.9375 420.4297,281.8594 Q420.5781,281.7813 420.7813,281.7813 Q421.1094,281.7813 421.3672,282.0391 Q421.625,282.2969 421.625,282.6406 Q421.625,282.9844 421.2813,283.3906 Q420.7813,283.9688 419.9844,284.2969 Q418.9063,284.75 417.6094,284.75 Q416.0938,284.75 414.8906,284.125 Q413.9063,283.625 413.2188,282.5547 Q412.5313,281.4844 412.5313,280.2031 L412.5313,279.0469 Q412.5313,277.7188 413.1484,276.5703 Q413.7656,275.4219 414.8594,274.8047 Q415.9531,274.1875 417.1875,274.1875 Q417.9219,274.1875 418.5703,274.3516 Q419.2188,274.5156 419.7656,274.875 Z "/><text fill="#000000" font-family="sans-serif" font-size="12" lengthAdjust="spacingAndGlyphs" textLength="34" x="431" y="283.9102">Grupo</text><line style="stroke: #A80036; stroke-width: 1.5;" x1="403" x2="467" y1="295" y2="295"/><line style="stroke: #A80036; stroke-width: 1.5;" x1="403" x2="467" y1="303" y2="303"/><!--class Universo--><rect fill="#FEFECE" filter="url(#f1fxzzuw7wejmh)" height="48" id="Universo" style="stroke: #A80036; stroke-width: 1.5;" width="81" x="400.5" y="155"/><ellipse cx="415.5" cy="171" fill="#ADD1B2" rx="11" ry="11" style="stroke: #A80036; stroke-width: 1.0;"/><path d="M418.2656,166.875 Q418.4219,166.6563 418.6094,166.5469 Q418.7969,166.4375 419.0156,166.4375 Q419.3906,166.4375 419.625,166.6953 Q419.8594,166.9531 419.8594,167.5625 L419.8594,169.0156 Q419.8594,169.625 419.625,169.8906 Q419.3906,170.1563 419.0156,170.1563 Q418.6719,170.1563 418.4688,169.9531 Q418.2656,169.7656 418.1563,169.25 Q418.1094,168.8906 417.9219,168.7031 Q417.5938,168.3281 416.9844,168.1094 Q416.375,167.8906 415.75,167.8906 Q414.9844,167.8906 414.3516,168.2188 Q413.7188,168.5469 413.2266,169.2969 Q412.7344,170.0469 412.7344,171.0781 L412.7344,172.1719 Q412.7344,173.4063 413.625,174.2266 Q414.5156,175.0469 416.1094,175.0469 Q417.0469,175.0469 417.7031,174.7969 Q418.0938,174.6406 418.5156,174.2031 Q418.7813,173.9375 418.9297,173.8594 Q419.0781,173.7813 419.2813,173.7813 Q419.6094,173.7813 419.8672,174.0391 Q420.125,174.2969 420.125,174.6406 Q420.125,174.9844 419.7813,175.3906 Q419.2813,175.9688 418.4844,176.2969 Q417.4063,176.75 416.1094,176.75 Q414.5938,176.75 413.3906,176.125 Q412.4063,175.625 411.7188,174.5547 Q411.0313,173.4844 411.0313,172.2031 L411.0313,171.0469 Q411.0313,169.7188 411.6484,168.5703 Q412.2656,167.4219 413.3594,166.8047 Q414.4531,166.1875 415.6875,166.1875 Q416.4219,166.1875 417.0703,166.3516 Q417.7188,166.5156 418.2656,166.875 Z "/><text fill="#000000" font-family="sans-serif" font-size="12" lengthAdjust="spacingAndGlyphs" textLength="49" x="429.5" y="175.9102">Universo</text><line style="stroke: #A80036; stroke-width: 1.5;" x1="401.5" x2="480.5" y1="187" y2="187"/><line style="stroke: #A80036; stroke-width: 1.5;" x1="401.5" x2="480.5" y1="195" y2="195"/><!--link Átomo to ParticulaElemental--><path d="M450.137,1619.869 C452.935,1630.858 456.015,1642.947 458.817,1653.9473 " fill="none" id="Átomo-ParticulaElemental" style="stroke: #A80036; stroke-width: 1.0;"/><polygon fill="#A80036" points="462.06,1666.6784,463.7148,1656.9696,460.8258,1661.8331,455.9623,1658.9442,462.06,1666.6784" style="stroke: #A80036; stroke-width: 1.0;"/><line style="stroke: #A80036; stroke-width: 1.0;" x1="460.8258" x2="458.8505" y1="1661.8331" y2="1654.0806"/><polygon fill="#A80036" points="446.859,1607,444.4635,1613.8016,449.8206,1618.6288,452.2161,1611.8272,446.859,1607" style="stroke: #A80036; stroke-width: 1.0;"/><!--link Molécula to Átomo--><path d="M441,1512.338 C441,1523.006 441,1534.677 441,1545.364 " fill="none" id="Molécula-Átomo" style="stroke: #A80036; stroke-width: 1.0;"/><polygon fill="#A80036" points="441,1558.678,445,1549.678,441,1553.678,437,1549.678,441,1558.678" style="stroke: #A80036; stroke-width: 1.0;"/><line style="stroke: #A80036; stroke-width: 1.0;" x1="441" x2="441" y1="1553.678" y2="1545.678"/><polygon fill="#A80036" points="441,1499,437,1505,441,1511,445,1505,441,1499" style="stroke: #A80036; stroke-width: 1.0;"/><!--link Orgánulo to Molécula--><path d="M441.657,1404.338 C441.557,1415.006 441.446,1426.677 441.346,1437.364 " fill="none" id="Orgánulo-Molécula" style="stroke: #A80036; stroke-width: 1.0;"/><polygon fill="#A80036" points="441.22,1450.678,445.3049,1441.7162,441.2673,1445.6782,437.3052,1441.6406,441.22,1450.678" style="stroke: #A80036; stroke-width: 1.0;"/><line style="stroke: #A80036; stroke-width: 1.0;" x1="441.2673" x2="441.343" y1="1445.6782" y2="1437.679"/><polygon fill="#A80036" points="441.783,1391,437.7265,1396.9619,441.6696,1402.9995,445.7261,1397.0375,441.783,1391" style="stroke: #A80036; stroke-width: 1.0;"/><!--link Célula to Orgánulo--><path d="M440.028,1296.338 C440.33,1307.006 440.661,1318.677 440.963,1329.364 " fill="none" id="Célula-Orgánulo" style="stroke: #A80036; stroke-width: 1.0;"/><polygon fill="#A80036" points="441.34,1342.678,445.0842,1333.5686,441.1988,1337.68,437.0874,1333.7946,441.34,1342.678" style="stroke: #A80036; stroke-width: 1.0;"/><line style="stroke: #A80036; stroke-width: 1.0;" x1="441.1988" x2="440.972" y1="1337.68" y2="1329.6835"/><polygon fill="#A80036" points="439.651,1283,435.8227,1289.111,439.9912,1294.9952,443.8195,1288.8842,439.651,1283" style="stroke: #A80036; stroke-width: 1.0;"/><!--link Músculo to Célula--><path d="M439,1188.338 C439,1199.006 439,1210.677 439,1221.364 " fill="none" id="Músculo-Célula" style="stroke: #A80036; stroke-width: 1.0;"/><polygon fill="#A80036" points="439,1234.678,443,1225.678,439,1229.678,435,1225.678,439,1234.678" style="stroke: #A80036; stroke-width: 1.0;"/><line style="stroke: #A80036; stroke-width: 1.0;" x1="439" x2="439" y1="1229.678" y2="1221.678"/><polygon fill="#A80036" points="439,1175,435,1181,439,1187,443,1181,439,1175" style="stroke: #A80036; stroke-width: 1.0;"/><!--link Corazón to Músculo--><path d="M439,1080.338 C439,1091.006 439,1102.677 439,1113.364 " fill="none" id="Corazón-Músculo" style="stroke: #A80036; stroke-width: 1.0;"/><polygon fill="#A80036" points="439,1126.678,443,1117.678,439,1121.678,435,1117.678,439,1126.678" style="stroke: #A80036; stroke-width: 1.0;"/><line style="stroke: #A80036; stroke-width: 1.0;" x1="439" x2="439" y1="1121.678" y2="1113.678"/><polygon fill="#A80036" points="439,1067,435,1073,439,1079,443,1073,439,1067" style="stroke: #A80036; stroke-width: 1.0;"/><!--link SistemaCirculatorio to Corazón--><path d="M460.172,971.869 C456.854,982.858 453.205,994.947 449.884,1005.947 " fill="none" id="SistemaCirculatorio-Corazón" style="stroke: #A80036; stroke-width: 1.0;"/><polygon fill="#A80036" points="446.04,1018.678,452.4706,1011.2182,447.4852,1013.8914,444.812,1008.906,446.04,1018.678" style="stroke: #A80036; stroke-width: 1.0;"/><line style="stroke: #A80036; stroke-width: 1.0;" x1="447.4852" x2="449.7975" y1="1013.8914" y2="1006.233"/><polygon fill="#A80036" points="464.056,959,458.4925,963.5878,460.5876,970.4878,466.1511,965.9,464.056,959" style="stroke: #A80036; stroke-width: 1.0;"/><!--link HomoSapiens to SistemaCirculatorio--><path d="M461.142,864.338 C462.669,875.126 464.341,886.94 465.867,897.724 " fill="none" id="HomoSapiens-SistemaCirculatorio" style="stroke: #A80036; stroke-width: 1.0;"/><polygon fill="#A80036" points="467.7,910.678,470.3995,901.2063,466.9994,905.7273,462.4784,902.3272,467.7,910.678" style="stroke: #A80036; stroke-width: 1.0;"/><line style="stroke: #A80036; stroke-width: 1.0;" x1="466.9994" x2="465.878" y1="905.7273" y2="897.8065"/><polygon fill="#A80036" points="459.255,851,456.1351,857.5013,460.9364,862.8816,464.0562,856.3804,459.255,851" style="stroke: #A80036; stroke-width: 1.0;"/><!--link Esfera to HomoSapiens--><path d="M441.445,755.869 C443.725,766.858 446.234,778.947 448.517,789.947 " fill="none" id="Esfera-HomoSapiens" style="stroke: #A80036; stroke-width: 1.0;"/><polygon fill="#A80036" points="451.16,802.678,453.2478,793.053,450.144,797.7823,445.4147,794.6785,451.16,802.678" style="stroke: #A80036; stroke-width: 1.0;"/><line style="stroke: #A80036; stroke-width: 1.0;" x1="450.144" x2="448.518" y1="797.7823" y2="789.9495"/><polygon fill="#A80036" points="438.774,743,436.0766,749.6876,441.2123,754.7497,443.9097,748.0621,438.774,743" style="stroke: #A80036; stroke-width: 1.0;"/><!--link Planeta to Esfera--><path d="M435.972,648.34 C435.67,659.01 435.339,670.68 435.037,681.36 " fill="none" id="Planeta-Esfera" style="stroke: #A80036; stroke-width: 1.0;"/><polygon fill="#A80036" points="434.66,694.68,438.9155,685.798,434.8029,689.682,430.9188,685.5694,434.66,694.68" style="stroke: #A80036; stroke-width: 1.0;"/><line style="stroke: #A80036; stroke-width: 1.0;" x1="434.8029" x2="435.028" y1="689.682" y2="681.68"/><polygon fill="#A80036" points="436.349,635,432.1857,640.8878,436.0193,646.9955,440.1826,641.1076,436.349,635" style="stroke: #A80036; stroke-width: 1.0;"/><!--link SistemaSolar to Planeta--><path d="M448.247,539.87 C446.504,550.74 444.589,562.68 442.84,573.58 " fill="none" id="SistemaSolar-Planeta" style="stroke: #A80036; stroke-width: 1.0;"/><polygon fill="#A80036" points="440.74,586.68,446.1137,578.4263,441.5312,581.743,438.2145,577.1605,440.74,586.68" style="stroke: #A80036; stroke-width: 1.0;"/><line style="stroke: #A80036; stroke-width: 1.0;" x1="441.5312" x2="442.799" y1="581.743" y2="573.84"/><polygon fill="#A80036" points="450.311,527,445.4119,532.2914,448.412,538.8488,453.3111,533.5574,450.311,527" style="stroke: #A80036; stroke-width: 1.0;"/><!--link Galaxia to SistemaSolar--><path d="M442.753,431.87 C444.496,442.74 446.411,454.68 448.16,465.58 " fill="none" id="Galaxia-SistemaSolar" style="stroke: #A80036; stroke-width: 1.0;"/><polygon fill="#A80036" points="450.26,478.68,452.7855,469.1605,449.4688,473.743,444.8863,470.4263,450.26,478.68" style="stroke: #A80036; stroke-width: 1.0;"/><line style="stroke: #A80036; stroke-width: 1.0;" x1="449.4688" x2="448.201" y1="473.743" y2="465.84"/><polygon fill="#A80036" points="440.689,419,437.6889,425.5574,442.588,430.8488,445.5881,424.2914,440.689,419" style="stroke: #A80036; stroke-width: 1.0;"/><!--link Grupo to Galaxia--><path d="M435.686,324.34 C435.887,335.01 436.107,346.68 436.309,357.36 " fill="none" id="Grupo-Galaxia" style="stroke: #A80036; stroke-width: 1.0;"/><polygon fill="#A80036" points="436.56,370.68,440.3812,361.6026,436.4611,365.681,432.3828,361.7609,436.56,370.68" style="stroke: #A80036; stroke-width: 1.0;"/><line style="stroke: #A80036; stroke-width: 1.0;" x1="436.4611" x2="436.3145" y1="365.681" y2="357.68"/><polygon fill="#A80036" points="435.434,311,431.5468,317.0737,435.6582,322.9979,439.5454,316.9242,435.434,311" style="stroke: #A80036; stroke-width: 1.0;"/><!--link Universo to Grupo--><path d="M438.943,216.34 C438.339,227.01 437.679,238.68 437.074,249.36 " fill="none" id="Universo-Grupo" style="stroke: #A80036; stroke-width: 1.0;"/><polygon fill="#A80036" points="436.32,262.68,440.8277,253.9233,436.6057,257.6882,432.8408,253.4662,436.32,262.68" style="stroke: #A80036; stroke-width: 1.0;"/><line style="stroke: #A80036; stroke-width: 1.0;" x1="436.6057" x2="437.055" y1="257.6882" y2="249.7"/><polygon fill="#A80036" points="439.698,203,435.3617,208.7616,439.0123,214.9804,443.3486,209.2188,439.698,203" style="stroke: #A80036; stroke-width: 1.0;"/><!--link TuAtomo to TuParticulaElemtal--><path d="M298.717,1505.472 C296.101,1520.067 292.95,1537.648 290.328,1552.277 " fill="none" id="TuAtomo-TuParticulaElemtal" style="stroke: #A80036; stroke-width: 1.0;"/><polygon fill="#A80036" points="288.011,1565.204,293.5366,1557.0512,288.8934,1560.2825,285.6622,1555.6393,288.011,1565.204" style="stroke: #A80036; stroke-width: 1.0;"/><line style="stroke: #A80036; stroke-width: 1.0;" x1="288.8934" x2="290.3045" y1="1560.2825" y2="1552.408"/><polygon fill="#A80036" points="301.031,1492.562,296.0354,1497.7624,298.9144,1504.3739,303.91,1499.1735,301.031,1492.562" style="stroke: #A80036; stroke-width: 1.0;"/><!--link TuMolecula to TuAtomo--><path d="M304,1397.753 C304,1412.164 304,1429.436 304,1443.894 " fill="none" id="TuMolecula-TuAtomo" style="stroke: #A80036; stroke-width: 1.0;"/><polygon fill="#A80036" points="304,1457.204,308,1448.204,304,1452.204,300,1448.204,304,1457.204" style="stroke: #A80036; stroke-width: 1.0;"/><line style="stroke: #A80036; stroke-width: 1.0;" x1="304" x2="304" y1="1452.204" y2="1444.204"/><polygon fill="#A80036" points="304,1384.562,300,1390.562,304,1396.562,308,1390.562,304,1384.562" style="stroke: #A80036; stroke-width: 1.0;"/><!--link TuOrganulo to TuMolecula--><path d="M304,1289.753 C304,1304.164 304,1321.436 304,1335.894 " fill="none" id="TuOrganulo-TuMolecula" style="stroke: #A80036; stroke-width: 1.0;"/><polygon fill="#A80036" points="304,1349.204,308,1340.204,304,1344.204,300,1340.204,304,1349.204" style="stroke: #A80036; stroke-width: 1.0;"/><line style="stroke: #A80036; stroke-width: 1.0;" x1="304" x2="304" y1="1344.204" y2="1336.204"/><polygon fill="#A80036" points="304,1276.562,300,1282.562,304,1288.562,308,1282.562,304,1276.562" style="stroke: #A80036; stroke-width: 1.0;"/><!--link TuCelula to TuOrganulo--><path d="M306.158,1181.753 C305.75,1196.164 305.261,1213.436 304.852,1227.894 " fill="none" id="TuCelula-TuOrganulo" style="stroke: #A80036; stroke-width: 1.0;"/><polygon fill="#A80036" points="304.475,1241.204,308.7286,1232.321,304.6168,1236.206,300.7318,1232.0942,304.475,1241.204" style="stroke: #A80036; stroke-width: 1.0;"/><line style="stroke: #A80036; stroke-width: 1.0;" x1="304.6168" x2="304.843" y1="1236.206" y2="1228.209"/><polygon fill="#A80036" points="306.531,1168.562,302.3632,1174.4466,306.1921,1180.5572,310.36,1174.6726,306.531,1168.562" style="stroke: #A80036; stroke-width: 1.0;"/><!--link TuMusculo to TuCelula--><path d="M307,1073.753 C307,1088.164 307,1105.436 307,1119.894 " fill="none" id="TuMusculo-TuCelula" style="stroke: #A80036; stroke-width: 1.0;"/><polygon fill="#A80036" points="307,1133.204,311,1124.204,307,1128.204,303,1124.204,307,1133.204" style="stroke: #A80036; stroke-width: 1.0;"/><line style="stroke: #A80036; stroke-width: 1.0;" x1="307" x2="307" y1="1128.204" y2="1120.204"/><polygon fill="#A80036" points="307,1060.562,303,1066.562,307,1072.562,311,1066.562,307,1060.562" style="stroke: #A80036; stroke-width: 1.0;"/><!--link TuCorazon to TuMusculo--><path d="M307,965.753 C307,980.164 307,997.436 307,1011.894 " fill="none" id="TuCorazon-TuMusculo" style="stroke: #A80036; stroke-width: 1.0;"/><polygon fill="#A80036" points="307,1025.204,311,1016.204,307,1020.204,303,1016.204,307,1025.204" style="stroke: #A80036; stroke-width: 1.0;"/><line style="stroke: #A80036; stroke-width: 1.0;" x1="307" x2="307" y1="1020.204" y2="1012.204"/><polygon fill="#A80036" points="307,952.562,303,958.562,307,964.562,311,958.562,307,952.562" style="stroke: #A80036; stroke-width: 1.0;"/><!--link TuSistemaCirculatorio to TuCorazon--><path d="M283.813,857.192 C288.274,871.97 293.676,889.865 298.143,904.663 " fill="none" id="TuSistemaCirculatorio-TuCorazon" style="stroke: #A80036; stroke-width: 1.0;"/><polygon fill="#A80036" points="301.93,917.204,303.158,907.432,300.4848,912.4174,295.4994,909.7442,301.93,917.204" style="stroke: #A80036; stroke-width: 1.0;"/><line style="stroke: #A80036; stroke-width: 1.0;" x1="300.4848" x2="298.1725" y1="912.4174" y2="904.759"/><polygon fill="#A80036" points="280,844.562,277.9047,851.462,283.468,856.0499,285.5633,849.15,280,844.562" style="stroke: #A80036; stroke-width: 1.0;"/><!--link Tu to TuSistemaCirculatorio--><path d="M269.245,749.753 C270.333,764.164 271.637,781.436 272.728,795.894 " fill="none" id="Tu-TuSistemaCirculatorio" style="stroke: #A80036; stroke-width: 1.0;"/><polygon fill="#A80036" points="273.732,809.204,277.0432,799.9284,273.3556,804.2182,269.0659,800.5306,273.732,809.204" style="stroke: #A80036; stroke-width: 1.0;"/><line style="stroke: #A80036; stroke-width: 1.0;" x1="273.3556" x2="272.754" y1="804.2182" y2="796.2405"/><polygon fill="#A80036" points="268.25,736.56,264.713,742.8441,269.1532,748.526,272.6903,742.2419,268.25,736.56" style="stroke: #A80036; stroke-width: 1.0;"/><!--link LaBiosfera to Tu--><path d="M116.497,634.91 C154.442,655.86 209.376,686.19 241.315,703.82 " fill="none" id="LaBiosfera-Tu" style="stroke: #A80036; stroke-width: 1.0;"/><polygon fill="#A80036" points="252.726,710.12,246.7787,702.2696,248.3483,707.7043,242.9136,709.2739,252.726,710.12" style="stroke: #A80036; stroke-width: 1.0;"/><line style="stroke: #A80036; stroke-width: 1.0;" x1="248.3483" x2="241.345" y1="707.7043" y2="703.835"/><polygon fill="#A80036" points="105,628.56,108.3207,634.961,115.5065,634.3577,112.1858,627.9567,105,628.56" style="stroke: #A80036; stroke-width: 1.0;"/><!--link LaBiosfera to Yo--><path d="M124.298,633.14 C125.881,633.78 127.451,634.4 129,635 C203.256,663.96 227.383,658.04 298,695 C300.319,696.21 302.659,697.58 304.962,699.02 " fill="none" id="LaBiosfera-Yo" style="stroke: #A80036; stroke-width: 1.0;"/><polygon fill="#A80036" points="315.904,706.56,310.7633,698.1592,311.787,703.7226,306.2236,704.7463,315.904,706.56" style="stroke: #A80036; stroke-width: 1.0;"/><line style="stroke: #A80036; stroke-width: 1.0;" x1="311.787" x2="305.198" y1="703.7226" y2="699.185"/><polygon fill="#A80036" points="112.059,628.14,116.0981,634.1138,123.1658,632.683,119.1267,626.7092,112.059,628.14" style="stroke: #A80036; stroke-width: 1.0;"/><!--link LaTierra to LaLitosfera--><path d="M217.745,529.35 C235.916,545.96 259.59,567.59 277.844,584.27 " fill="none" id="LaTierra-LaLitosfera" style="stroke: #A80036; stroke-width: 1.0;"/><polygon fill="#A80036" points="287.619,593.2,283.6789,584.1736,283.93,589.8249,278.2787,590.0761,287.619,593.2" style="stroke: #A80036; stroke-width: 1.0;"/><line style="stroke: #A80036; stroke-width: 1.0;" x1="283.93" x2="278.0225" y1="589.8249" y2="584.435"/><polygon fill="#A80036" points="208.125,520.56,209.8569,527.56,216.9846,528.6536,215.2527,521.6536,208.125,520.56" style="stroke: #A80036; stroke-width: 1.0;"/><!--link LaTierra to LaHidrosfera--><path d="M190,533.75 C190,548.16 190,565.44 190,579.89 " fill="none" id="LaTierra-LaHidrosfera" style="stroke: #A80036; stroke-width: 1.0;"/><polygon fill="#A80036" points="190,593.2,194,584.2,190,588.2,186,584.2,190,593.2" style="stroke: #A80036; stroke-width: 1.0;"/><line style="stroke: #A80036; stroke-width: 1.0;" x1="190" x2="190" y1="588.2" y2="580.2"/><polygon fill="#A80036" points="190,520.56,186,526.56,190,532.56,194,526.56,190,520.56" style="stroke: #A80036; stroke-width: 1.0;"/><!--link LaTierra to LaBiosfera--><path d="M162.203,529.62 C144.212,546.21 120.872,567.72 102.8667,584.31 " fill="none" id="LaTierra-LaBiosfera" style="stroke: #A80036; stroke-width: 1.0;"/><polygon fill="#A80036" points="93.2221,593.2,102.5505,590.0406,96.8983,589.8109,97.128,584.1588,93.2221,593.2" style="stroke: #A80036; stroke-width: 1.0;"/><line style="stroke: #A80036; stroke-width: 1.0;" x1="96.8983" x2="102.7809" y1="589.8109" y2="584.395"/><polygon fill="#A80036" points="172.031,520.56,164.9083,521.6856,163.2078,528.6934,170.3306,527.5677,172.031,520.56" style="stroke: #A80036; stroke-width: 1.0;"/><!--link ElSistemaSolar to LaTierra--><path d="M187.842,425.75 C188.25,440.16 188.739,457.44 189.148,471.89 " fill="none" id="ElSistemaSolar-LaTierra" style="stroke: #A80036; stroke-width: 1.0;"/><polygon fill="#A80036" points="189.525,485.2,193.2662,476.0894,189.3821,480.202,185.2695,476.318,189.525,485.2" style="stroke: #A80036; stroke-width: 1.0;"/><line style="stroke: #A80036; stroke-width: 1.0;" x1="189.3821" x2="189.157" y1="480.202" y2="472.21"/><polygon fill="#A80036" points="187.469,412.56,183.642,418.6718,187.8118,424.5551,191.6388,418.4433,187.469,412.56" style="stroke: #A80036; stroke-width: 1.0;"/><!--link ElSistemaSolar to Jupiter--><path d="M214.072,421.62 C231.512,438.13 254.113,459.52 271.615,476.08 " fill="none" id="ElSistemaSolar-Jupiter" style="stroke: #A80036; stroke-width: 1.0;"/><polygon fill="#A80036" points="281.253,485.2,277.4653,476.1086,277.6213,481.7633,271.9666,481.9194,281.253,485.2" style="stroke: #A80036; stroke-width: 1.0;"/><line style="stroke: #A80036; stroke-width: 1.0;" x1="277.6213" x2="271.8115" y1="481.7633" y2="476.265"/><polygon fill="#A80036" points="204.5,412.56,206.1087,419.5894,213.2161,420.808,211.6074,413.7786,204.5,412.56" style="stroke: #A80036; stroke-width: 1.0;"/><!--link LaViaLactea to ElSistemaSolar--><path d="M187.719,317.75 C187.583,332.16 187.42,349.44 187.284,363.89 " fill="none" id="LaViaLactea-ElSistemaSolar" style="stroke: #A80036; stroke-width: 1.0;"/><polygon fill="#A80036" points="187.158,377.2,191.2468,368.24,187.2074,372.2002,183.2472,368.1609,187.158,377.2" style="stroke: #A80036; stroke-width: 1.0;"/><line style="stroke: #A80036; stroke-width: 1.0;" x1="187.2074" x2="187.281" y1="372.2002" y2="364.205"/><polygon fill="#A80036" points="187.844,304.56,183.7914,310.5246,187.7385,316.5595,191.7911,310.5949,187.844,304.56" style="stroke: #A80036; stroke-width: 1.0;"/><!--link LaViaLactea to Kepler444--><path d="M216.701,313.35 C235.587,330.03 260.218,351.79 279.136,368.5 " fill="none" id="LaViaLactea-Kepler444" style="stroke: #A80036; stroke-width: 1.0;"/><polygon fill="#A80036" points="288.986,377.2,284.8894,368.2436,285.2388,373.8896,279.5928,374.2391,288.986,377.2" style="stroke: #A80036; stroke-width: 1.0;"/><line style="stroke: #A80036; stroke-width: 1.0;" x1="285.2388" x2="279.2425" y1="373.8896" y2="368.6"/><polygon fill="#A80036" points="206.75,304.56,208.5989,311.5301,215.7439,312.5042,213.895,305.5341,206.75,304.56" style="stroke: #A80036; stroke-width: 1.0;"/><!--link ElGrupoLocal to LaViaLactea--><path d="M188,209.75 C188,224.16 188,241.44 188,255.89 " fill="none" id="ElGrupoLocal-LaViaLactea" style="stroke: #A80036; stroke-width: 1.0;"/><polygon fill="#A80036" points="188,269.2,192,260.2,188,264.2,184,260.2,188,269.2" style="stroke: #A80036; stroke-width: 1.0;"/><line style="stroke: #A80036; stroke-width: 1.0;" x1="188" x2="188" y1="264.2" y2="256.2"/><polygon fill="#A80036" points="188,196.56,184,202.56,188,208.56,192,202.56,188,196.56" style="stroke: #A80036; stroke-width: 1.0;"/><!--link ElGrupoLocal to Andromeda--><path d="M215.745,205.35 C233.916,221.96 257.59,243.59 275.844,260.27 " fill="none" id="ElGrupoLocal-Andromeda" style="stroke: #A80036; stroke-width: 1.0;"/><polygon fill="#A80036" points="285.619,269.2,281.6789,260.1736,281.93,265.8249,276.2787,266.0761,285.619,269.2" style="stroke: #A80036; stroke-width: 1.0;"/><line style="stroke: #A80036; stroke-width: 1.0;" x1="281.93" x2="276.0225" y1="265.8249" y2="260.435"/><polygon fill="#A80036" points="206.125,196.56,207.8569,203.56,214.9846,204.6536,213.2527,197.6536,206.125,196.56" style="stroke: #A80036; stroke-width: 1.0;"/><!--link ElUniverso to ElGrupoLocal--><path d="M262.211,102.18 C257.966,104.98 253.823,107.94 250,111 C235.307,122.76 220.905,138.03 209.685,151.02 " fill="none" id="ElUniverso-ElGrupoLocal" style="stroke: #A80036; stroke-width: 1.0;"/><polygon fill="#A80036" points="201.072,161.26,209.9267,156.9478,204.2907,157.4338,203.8047,151.7979,201.072,161.26" style="stroke: #A80036; stroke-width: 1.0;"/><line style="stroke: #A80036; stroke-width: 1.0;" x1="204.2907" x2="209.436" y1="157.4338" y2="151.31"/><polygon fill="#A80036" points="273.529,95.15,266.3217,94.9163,263.3339,101.4794,270.5413,101.713,273.529,95.15" style="stroke: #A80036; stroke-width: 1.0;"/><!--link ElUniverso to GrupoVirgo--><path d="M306,108.53 C306,121.12 306,135.72 306,148.28 " fill="none" id="ElUniverso-GrupoVirgo" style="stroke: #A80036; stroke-width: 1.0;"/><polygon fill="#A80036" points="306,161.37,310,152.37,306,156.37,302,152.37,306,161.37" style="stroke: #A80036; stroke-width: 1.0;"/><line style="stroke: #A80036; stroke-width: 1.0;" x1="306" x2="306" y1="156.37" y2="148.37"/><polygon fill="#A80036" points="306,95.38,302,101.38,306,107.38,310,101.38,306,95.38" style="stroke: #A80036; stroke-width: 1.0;"/><!--link TuParticulaElemtal to ParticulaElemental--><path d="M313.594,1600.562 C343.033,1617.615 389.31,1644.42 423.532,1664.2426 " fill="none" id="TuParticulaElemtal-ParticulaElemental" style="stroke: #A80036; stroke-width: 1.0; stroke-dasharray: 7.0,7.0;"/><polygon fill="#A80036" points="428.066,1666.8688,422.2845,1658.8955,423.7399,1664.3619,418.2734,1665.8173,428.066,1666.8688" style="stroke: #A80036; stroke-width: 1.0;"/><!--link TuAtomo to Átomo--><path d="M325.406,1492.562 C347.265,1509.475 381.525,1535.983 407.081,1555.756 " fill="none" id="TuAtomo-Átomo" style="stroke: #A80036; stroke-width: 1.0; stroke-dasharray: 7.0,7.0;"/><polygon fill="#A80036" points="411.104,1558.869,406.4323,1550.1986,407.149,1555.8099,401.5378,1556.5266,411.104,1558.869" style="stroke: #A80036; stroke-width: 1.0;"/><!--link TuMolecula to Molécula--><path d="M325.406,1384.562 C347.265,1401.475 381.525,1427.983 407.081,1447.756 " fill="none" id="TuMolecula-Molécula" style="stroke: #A80036; stroke-width: 1.0; stroke-dasharray: 7.0,7.0;"/><polygon fill="#A80036" points="411.104,1450.869,406.4323,1442.1986,407.149,1447.8099,401.5378,1448.5266,411.104,1450.869" style="stroke: #A80036; stroke-width: 1.0;"/><!--link TuOrganulo to Orgánulo--><path d="M325.563,1276.562 C347.581,1293.475 382.091,1319.983 407.833,1339.756 " fill="none" id="TuOrganulo-Orgánulo" style="stroke: #A80036; stroke-width: 1.0; stroke-dasharray: 7.0,7.0;"/><polygon fill="#A80036" points="411.886,1342.869,407.1846,1334.2147,407.9205,1339.8235,402.3118,1340.5594,411.886,1342.869" style="stroke: #A80036; stroke-width: 1.0;"/><!--link TuCelula to Célula--><path d="M327.625,1168.562 C348.6,1185.406 381.424,1211.765 406.014,1231.511 " fill="none" id="TuCelula-Célula" style="stroke: #A80036; stroke-width: 1.0; stroke-dasharray: 7.0,7.0;"/><polygon fill="#A80036" points="410.195,1234.869,405.6812,1226.1154,406.2961,1231.7387,400.6728,1232.3536,410.195,1234.869" style="stroke: #A80036; stroke-width: 1.0;"/><!--link TuMusculo to Músculo--><path d="M327.625,1060.562 C348.6,1077.406 381.424,1103.765 406.014,1123.511 " fill="none" id="TuMusculo-Músculo" style="stroke: #A80036; stroke-width: 1.0; stroke-dasharray: 7.0,7.0;"/><polygon fill="#A80036" points="410.195,1126.869,405.6812,1118.1154,406.2961,1123.7387,400.6728,1124.3536,410.195,1126.869" style="stroke: #A80036; stroke-width: 1.0;"/><!--link TuCorazon to Corazón--><path d="M327.625,952.562 C348.6,969.406 381.424,995.765 406.014,1015.511 " fill="none" id="TuCorazon-Corazón" style="stroke: #A80036; stroke-width: 1.0; stroke-dasharray: 7.0,7.0;"/><polygon fill="#A80036" points="410.195,1018.869,405.6812,1010.1154,406.2961,1015.7387,400.6728,1016.3536,410.195,1018.869" style="stroke: #A80036; stroke-width: 1.0;"/><!--link TuSistemaCirculatorio to SistemaCirculatorio--><path d="M305.625,844.562 C337.284,861.684 387.125,888.639 423.821,908.485 " fill="none" id="TuSistemaCirculatorio-SistemaCirculatorio" style="stroke: #A80036; stroke-width: 1.0; stroke-dasharray: 7.0,7.0;"/><polygon fill="#A80036" points="428.229,910.869,422.215,903.0695,423.8309,908.4907,418.4097,910.1065,428.229,910.869" style="stroke: #A80036; stroke-width: 1.0;"/><!--link Tu to HomoSapiens--><path d="M281.184,731.24 C286.354,735.15 292.326,739.43 298,743 C331.883,764.29 371.791,785.223 403.021,800.741 " fill="none" id="Tu-HomoSapiens" style="stroke: #A80036; stroke-width: 1.0; stroke-dasharray: 7.0,7.0;"/><polygon fill="#A80036" points="407.565,802.991,401.2749,795.4124,403.0843,800.7721,397.7247,802.5815,407.565,802.991" style="stroke: #A80036; stroke-width: 1.0;"/><!--link Yo to HomoSapiens--><path d="M344.454,732.16 C363.843,748.471 398.798,777.878 424.427,799.438 " fill="none" id="Yo-HomoSapiens" style="stroke: #A80036; stroke-width: 1.0; stroke-dasharray: 7.0,7.0;"/><polygon fill="#A80036" points="428.456,802.828,424.1442,793.9732,424.6299,799.6091,418.994,800.0949,428.456,802.828" style="stroke: #A80036; stroke-width: 1.0;"/><!--link LaLitosfera to Esfera--><path d="M326,628.56 C346.339,645.41 378.169,671.76 402.014,691.51 " fill="none" id="LaLitosfera-Esfera" style="stroke: #A80036; stroke-width: 1.0; stroke-dasharray: 7.0,7.0;"/><polygon fill="#A80036" points="406.068,694.87,401.6799,686.0527,402.2143,691.6843,396.5827,692.2186,406.068,694.87" style="stroke: #A80036; stroke-width: 1.0;"/><!--link LaHidrosfera to Esfera--><path d="M228.125,628.56 C273.609,648.32 349.238,681.18 395.073,701.09 " fill="none" id="LaHidrosfera-Esfera" style="stroke: #A80036; stroke-width: 1.0; stroke-dasharray: 7.0,7.0;"/><polygon fill="#A80036" points="399.687,703.09,393.027,695.8343,395.1013,701.0972,389.8385,703.1714,399.687,703.09" style="stroke: #A80036; stroke-width: 1.0;"/><!--link LaBiosfera to Esfera--><path d="M111.901,628.57 C117.574,630.87 123.406,633.09 129,635 C229.405,669.21 257.991,665.92 360,695 C371.332,698.23 383.572,701.94 394.772,705.43 " fill="none" id="LaBiosfera-Esfera" style="stroke: #A80036; stroke-width: 1.0; stroke-dasharray: 7.0,7.0;"/><polygon fill="#A80036" points="399.838,707.01,392.4412,700.5071,395.0657,705.5183,390.0545,708.1428,399.838,707.01" style="stroke: #A80036; stroke-width: 1.0;"/><!--link LaTierra to Planeta--><path d="M220.287,517 C264.09,535.8 345.295,570.64 394.904,591.93 " fill="none" id="LaTierra-Planeta" style="stroke: #A80036; stroke-width: 1.0; stroke-dasharray: 7.0,7.0;"/><polygon fill="#A80036" points="399.603,593.95,392.9083,586.7264,395.0078,591.9792,389.755,594.0787,399.603,593.95" style="stroke: #A80036; stroke-width: 1.0;"/><!--link Jupiter to Planeta--><path d="M320.563,520.56 C342.581,537.48 377.091,563.98 402.833,583.76 " fill="none" id="Jupiter-Planeta" style="stroke: #A80036; stroke-width: 1.0; stroke-dasharray: 7.0,7.0;"/><polygon fill="#A80036" points="406.886,586.87,402.1936,578.2108,402.9237,583.8203,397.3142,584.5504,406.886,586.87" style="stroke: #A80036; stroke-width: 1.0;"/><!--link ElSistemaSolar to SistemaSolar--><path d="M228.719,412.56 C273.475,430.33 344.907,458.69 395.318,478.7 " fill="none" id="ElSistemaSolar-SistemaSolar" style="stroke: #A80036; stroke-width: 1.0; stroke-dasharray: 7.0,7.0;"/><polygon fill="#A80036" points="400.129,480.61,393.2433,473.5682,395.4827,478.7629,390.288,481.0023,400.129,480.61" style="stroke: #A80036; stroke-width: 1.0;"/><!--link Kepler444 to SistemaSolar--><path d="M330.813,412.56 C354.108,429.48 390.618,455.98 417.852,475.76 " fill="none" id="Kepler444-SistemaSolar" style="stroke: #A80036; stroke-width: 1.0; stroke-dasharray: 7.0,7.0;"/><polygon fill="#A80036" points="422.14,478.87,417.2098,470.344,418.0948,475.9312,412.5077,476.8163,422.14,478.87" style="stroke: #A80036; stroke-width: 1.0;"/><!--link LaViaLactea to Galaxia--><path d="M226.906,304.56 C272.793,324.1 348.746,356.43 395.664,376.4 " fill="none" id="LaViaLactea-Galaxia" style="stroke: #A80036; stroke-width: 1.0; stroke-dasharray: 7.0,7.0;"/><polygon fill="#A80036" points="400.393,378.42,393.6793,371.214,395.7926,376.4613,390.5454,378.5746,400.393,378.42" style="stroke: #A80036; stroke-width: 1.0;"/><!--link Andromeda to Galaxia--><path d="M324.781,304.56 C345.915,321.41 378.988,347.76 403.764,367.51 " fill="none" id="Andromeda-Galaxia" style="stroke: #A80036; stroke-width: 1.0; stroke-dasharray: 7.0,7.0;"/><polygon fill="#A80036" points="407.977,370.87,403.4285,362.1344,404.0657,367.7552,398.4449,368.3925,407.977,370.87" style="stroke: #A80036; stroke-width: 1.0;"/><!--link ElGrupoLocal to Grupo--><path d="M226.594,196.56 C273.161,216.55 350.945,249.93 397.168,269.76 " fill="none" id="ElGrupoLocal-Grupo" style="stroke: #A80036; stroke-width: 1.0; stroke-dasharray: 7.0,7.0;"/><polygon fill="#A80036" points="401.817,271.76,395.1204,264.5381,397.2213,269.7904,391.969,271.8913,401.817,271.76" style="stroke: #A80036; stroke-width: 1.0;"/><!--link GrupoVirgo to Grupo--><path d="M326.156,196.56 C346.654,213.41 378.733,239.76 402.764,259.51 " fill="none" id="GrupoVirgo-Grupo" style="stroke: #A80036; stroke-width: 1.0; stroke-dasharray: 7.0,7.0;"/><polygon fill="#A80036" points="406.85,262.87,402.4265,254.0704,402.9835,259.6998,397.3542,260.2568,406.85,262.87" style="stroke: #A80036; stroke-width: 1.0;"/><!--link ElUniverso to Universo--><path d="M335.374,95.1 C343.508,99.98 352.233,105.5 360,111 C377.558,123.44 396.126,138.64 411.049,151.41 " fill="none" id="ElUniverso-Universo" style="stroke: #A80036; stroke-width: 1.0; stroke-dasharray: 7.0,7.0;"/><polygon fill="#A80036" points="415.157,154.94,410.9326,146.0431,411.3628,151.6836,405.7224,152.1138,415.157,154.94" style="stroke: #A80036; stroke-width: 1.0;"/><!--
@startuml

package objetos {
object TuParticulaElemtal
object TuAtomo
object TuMolecula
object TuOrganulo
object TuCelula
object TuMusculo
object TuCorazon
object TuSistemaCirculatorio
object Tu
object Yo
object LaLitosfera
object LaHidrosfera
object LaBiosfera
object LaTierra
object Jupiter
object ElSistemaSolar
object Kepler444
object LaViaLactea
object Andromeda
object ElGrupoLocal
object GrupoVirgo
object ElUniverso
}

package clases {
class ParticulaElemental
class Átomo
class Molécula
class Orgánulo
class Célula
class Músculo
class Corazón
class SistemaCirculatorio
class HomoSapiens
class Esfera
class Planeta
class SistemaSolar
class Galaxia
class Grupo
class Universo
}

Átomo  *-down-> ParticulaElemental
Molécula  *-down-> Átomo
Orgánulo  *-down-> Molécula
Célula  *-down-> Orgánulo
Músculo  *-down-> Célula
Corazón  *-down-> Músculo
SistemaCirculatorio  *-down-> Corazón
HomoSapiens  *-down-> SistemaCirculatorio
Esfera  *-down-> HomoSapiens
Planeta  *-down-> Esfera
SistemaSolar  *-down-> Planeta
Galaxia  *-down-> SistemaSolar
Grupo  *-down-> Galaxia
Universo  *-down-> Grupo

TuAtomo *-down-> TuParticulaElemtal
TuMolecula *-down-> TuAtomo
TuOrganulo *-down-> TuMolecula
TuCelula *-down-> TuOrganulo
TuMusculo *-down-> TuCelula
TuCorazon *-down-> TuMusculo
TuSistemaCirculatorio *-down-> TuCorazon
Tu *-down-> TuSistemaCirculatorio
LaBiosfera *-down-> Tu
LaBiosfera *-down-> Yo
LaTierra *-down-> LaLitosfera
LaTierra *-down-> LaHidrosfera
LaTierra *-down-> LaBiosfera
ElSistemaSolar *-down-> LaTierra
ElSistemaSolar *-down-> Jupiter
LaViaLactea *-down-> ElSistemaSolar
LaViaLactea *-down-> Kepler444
ElGrupoLocal *-down-> LaViaLactea
ElGrupoLocal *-down-> Andromeda
ElUniverso *-down-> ElGrupoLocal
ElUniverso *-down-> GrupoVirgo

ParticulaElemental <.down. TuParticulaElemtal
Átomo <.down. TuAtomo
Molécula <.down. TuMolecula
Orgánulo <.down. TuOrganulo
Célula <.down. TuCelula
Músculo <.down. TuMusculo
Corazón <.down. TuCorazon
SistemaCirculatorio <.down. TuSistemaCirculatorio
HomoSapiens <.down. Tu
HomoSapiens <.down. Yo
Esfera <.down. LaLitosfera
Esfera <.down. LaHidrosfera
Esfera <.down. LaBiosfera
Planeta <.down. LaTierra
Planeta <.down. Jupiter
SistemaSolar <.down. ElSistemaSolar
SistemaSolar <.down. Kepler444
Galaxia <.down. LaViaLactea
Galaxia <.down. Andromeda
Grupo <.down. ElGrupoLocal
Grupo <.down. GrupoVirgo
Universo <.down. ElUniverso

@enduml

PlantUML version 1.2019.05(Sat Apr 20 18:45:36 CEST 2019)
(GPL source distribution)
Java Runtime: OpenJDK Runtime Environment
JVM: OpenJDK 64-Bit Server VM
Java Version: 1.8.0_222-b10
Operating System: Windows 10
OS Version: 10.0
Default Encoding: windows-1252
Language: es
Country: ES
--></g></svg>